# xmcd CD database file
#
# Track frame offsets:
#	150
#	21280
#	46019
#	75366
#	93123
#	114694
#	132663
#	157006
#	177810
#	199778
#	225597
#	244311
#	268688
#	287838
#	308604
#
# Disc length: 4435 seconds
#
# Revision: 0
# Processed by: cddbd v1.4PL0 Copyright (c) Steve Scherf et al.
# Submitted via: CDex 1.50Beta3
#
DISCID=c411510f
DTITLE=Raulin Rosendo - El Disco De Oro - CD2
DYEAR=1997
DGENRE=Salsa
TTITLE0=Que No So Rompa La Noche
TTITLE1=Ruego De Amor
TTITLE2=Soca Salsa
TTITLE3=No Se Murio El Amor
TTITLE4=Mi Viejita
TTITLE5=Lindas Y Bellas
TTITLE6=Maruja
TTITLE7=Mucho Corazon
TTITLE8=Y Ahora Te Vas
TTITLE9=Mi Hembra
TTITLE10=El Borracho
TTITLE11=Pregunta Por Ahi
TTITLE12=Cupido
TTITLE13=Y Tu Tambien Lloraras
TTITLE14=Nada Se Compara Contigo
EXTD=YEAR: 1997
EXTT0=
EXTT1=
EXTT2=
EXTT3=
EXTT4=
EXTT5=
EXTT6=
EXTT7=
EXTT8=
EXTT9=
EXTT10=
EXTT11=
EXTT12=
EXTT13=
EXTT14=
PLAYORDER=
